<svg width="62" height="70" viewBox="0 0 62 70" fill="none" xmlns="http://www.w3.org/2000/svg">
<path d="M61.8182 10.0003V16.2502C61.8182 21.7581 47.9735 26.2502 30.9091 26.2502C13.8447 26.2502 0 21.7581 0 16.2502V10.0003C0 4.49241 13.8447 0.000244141 30.9091 0.000244141C47.9735 0.000244141 61.8182 4.49241 61.8182 10.0003ZM61.8182 24.0627V38.1252C61.8182 43.6331 47.9735 48.1252 30.9091 48.1252C13.8447 48.1252 0 43.6331 0 38.1252V24.0627C6.64062 28.594 18.7949 30.7034 30.9091 30.7034C43.0232 30.7034 55.1774 28.594 61.8182 24.0627ZM61.8182 45.9377V60.0002C61.8182 65.5081 47.9735 70.0002 30.9091 70.0002C13.8447 70.0002 0 65.5081 0 60.0002V45.9377C6.64062 50.469 18.7949 52.5784 30.9091 52.5784C43.0232 52.5784 55.1774 50.469 61.8182 45.9377Z" fill="white"/>
</svg>
