<svg width="85" height="78" viewBox="0 0 85 78" fill="none" xmlns="http://www.w3.org/2000/svg">
<path d="M22.8447 59.2344L28.1569 52.6251L11.0557 39.0045L28.1569 25.3839L22.8447 18.7746L1.59567 35.6998C1.09779 36.0962 0.695851 36.5991 0.419635 37.1711C0.143419 37.7432 0 38.3698 0 39.0045C0 39.6392 0.143419 40.2658 0.419635 40.8378C0.695851 41.4099 1.09779 41.9127 1.59567 42.3091L22.8447 59.2344ZM62.1553 18.7746L56.8431 25.3839L73.9443 39.0045L56.8431 52.6251L62.1553 59.2344L83.4043 42.3091C83.9022 41.9127 84.3041 41.4099 84.5804 40.8378C84.8566 40.2658 85 39.6392 85 39.0045C85 38.3698 84.8566 37.7432 84.5804 37.1711C84.3041 36.5991 83.9022 36.0962 83.4043 35.6998L62.1553 18.7746ZM55.1474 1.83663L38.1482 78.0002L29.8483 76.1639L46.8475 0.000244141L55.1474 1.83663Z" fill="white"/>
</svg>
