<svg width="74" height="75" viewBox="0 0 74 75" fill="none" xmlns="http://www.w3.org/2000/svg">
<path d="M72.7715 30.4678C73.24 32.9782 73.4953 35.6029 73.4953 38.3419C73.4953 59.7661 59.1566 75 37.5 75C32.575 75.0015 27.698 74.0326 23.1476 72.1485C18.5972 70.2645 14.4626 67.5023 10.9801 64.0198C7.49765 60.5373 4.73548 56.4028 2.85146 51.8524C0.967441 47.302 -0.00149986 42.425 1.74263e-06 37.5C-0.00149986 32.575 0.967441 27.698 2.85146 23.1476C4.73548 18.5972 7.49765 14.4626 10.9801 10.9801C14.4626 7.49765 18.5972 4.73548 23.1476 2.85146C27.698 0.967441 32.575 -0.00149986 37.5 1.74263e-06C47.6255 1.74263e-06 56.0862 3.72562 62.5775 9.77499L52.0063 20.3462V20.3195C48.0712 16.571 43.077 14.6472 37.5 14.6472C25.127 14.6472 15.0701 25.1003 15.0701 37.4771C15.0701 49.8502 25.127 60.3261 37.5 60.3261C48.7264 60.3261 56.3681 53.9072 57.9376 45.0922H37.5V30.4678H72.7753H72.7715Z" fill="white"/>
</svg>
