<svg width="62" height="75" viewBox="0 0 62 75" fill="none" xmlns="http://www.w3.org/2000/svg">
<path d="M40.9091 57.9548H6.81818V17.0457H40.9091V20.4548H47.7273V6.81843C47.7273 3.06843 44.6591 0.000244141 40.9091 0.000244141H6.81818C3.06818 0.000244141 0 3.06843 0 6.81843V68.1821C0 71.9321 3.06818 75.0002 6.81818 75.0002H40.9091C44.6591 75.0002 47.7273 71.9321 47.7273 68.1821V54.5457H40.9091V57.9548ZM52.4318 29.3866L54.5455 34.0912L56.6591 29.3866L61.3636 27.273L56.6591 25.1593L54.5455 20.4548L52.4318 25.1593L47.7273 27.273L52.4318 29.3866Z" fill="white"/>
<path d="M37.4996 23.8638L33.2383 33.2388L23.8633 37.5001L33.2383 41.7615L37.4996 51.1365L41.761 41.7615L51.136 37.5001L41.761 33.2388L37.4996 23.8638ZM54.5451 40.9092L52.4315 45.6138L47.7269 47.7274L52.4315 49.841L54.5451 54.5456L56.6587 49.841L61.3633 47.7274L56.6587 45.6138L54.5451 40.9092Z" fill="white"/>
</svg>
