<svg width="76" height="75" viewBox="0 0 76 75" fill="none" xmlns="http://www.w3.org/2000/svg">
<path d="M52.2069 29.7715L28.0993 16.3784C27.6921 16.1433 27.2302 16.0195 26.76 16.0195C26.2898 16.0195 25.8279 16.1433 25.4207 16.3784L1.31307 29.7715C0.904802 30.016 0.568387 30.3639 0.337896 30.7802C0.107404 31.1965 -0.00897656 31.6664 0.000540173 32.1421V58.915C0.00401653 59.3923 0.134975 59.86 0.379864 60.2697C0.624753 60.6794 0.974676 61.0163 1.39342 61.2454L25.501 74.6385C25.8924 74.8652 26.3346 74.9896 26.7868 75.0001C27.2472 74.9882 27.6978 74.8641 28.0993 74.6385L52.2069 61.2454C52.6202 61.0156 52.9647 60.6798 53.2048 60.2725C53.445 59.8652 53.5721 59.4012 53.573 58.9283V32.1421C53.5771 31.6611 53.4527 31.1877 53.2125 30.771C52.9723 30.3542 52.6252 30.0092 52.2069 29.7715ZM24.1082 67.7544L5.35779 57.3346V36.6556L24.1082 47.0754V67.7544ZM26.7868 42.4414L8.19713 32.1421L26.7868 21.7892L45.3764 32.1287L26.7868 42.4414ZM48.2158 57.3346L29.4654 67.7544V47.0754L48.2158 36.6556V57.3346Z" fill="white"/>
<path d="M75.0011 10.7145H64.2866V0H58.9293V10.7145H48.2148V16.0717H58.9293V26.7862H64.2866V16.0717H75.0011V10.7145Z" fill="white"/>
</svg>
