<svg width="75" height="75" viewBox="0 0 75 75" fill="none" xmlns="http://www.w3.org/2000/svg">
<path d="M73.799 18.614C74.1797 18.2341 74.4818 17.7828 74.6878 17.286C74.8939 16.7892 75 16.2566 75 15.7188C75 15.1809 74.8939 14.6483 74.6878 14.1515C74.4818 13.6547 74.1797 13.2034 73.799 12.8235L62.1768 1.20125C61.7969 0.820536 61.3456 0.518492 60.8487 0.312407C60.3519 0.106322 59.8194 0.000244141 59.2815 0.000244141C58.7436 0.000244141 58.2111 0.106322 57.7142 0.312407C57.2174 0.518492 56.7661 0.820536 56.3862 1.20125L37.9467 19.6407L21.9713 3.66532C18.768 0.462029 13.5524 0.462029 10.3491 3.66532L2.54621 11.4682C-0.657087 14.6715 -0.657087 19.8871 2.54621 23.0904L18.5216 39.0658L0 57.5875V75.0003H17.4128L35.9755 56.4376L51.9509 72.413C55.8523 76.3144 61.109 74.877 63.5731 72.413L71.376 64.6101C74.5793 61.4068 74.5793 56.1912 71.376 52.9879L55.4006 37.0124L73.799 18.614ZM8.37785 17.2588L16.1397 9.4559L21.3553 14.6715L16.5093 19.5586L22.2999 25.3492L27.1869 20.4621L32.1151 25.3902L24.3122 33.1931L8.37785 17.2588ZM54.4971 47.8133L49.61 52.7004L55.4006 58.491L60.2877 53.6039L65.5033 58.8195L57.7004 66.6224L41.725 50.647L49.5279 42.8441L54.4971 47.8133ZM14.0042 66.7867H8.21358V60.9961L47.6798 21.5299L53.0186 26.8687L53.4704 27.3204L14.0042 66.7867ZM53.4704 15.6982L59.261 9.90764L65.0515 15.6982L59.261 21.4888L53.4704 15.6982Z" fill="white"/>
</svg>
